<?xml version="1.0" encoding="utf-8"?>
<!-- Generator: Adobe Illustrator 16.0.0, SVG Export Plug-In . SVG Version: 6.00 Build 0)  -->
<!DOCTYPE svg PUBLIC "-//W3C//DTD SVG 1.1//EN" "http://www.w3.org/Graphics/SVG/1.1/DTD/svg11.dtd">
<svg version="1.1" id="Capa_1" xmlns="http://www.w3.org/2000/svg" xmlns:xlink="http://www.w3.org/1999/xlink" x="0px" y="0px"
	 width="416.5px" height="109.5px" viewBox="0 0 416.5 109.5" enable-background="new 0 0 416.5 109.5" xml:space="preserve">
<g>
	<path fill="#222222" d="M162.419,82.113v-7.399c-3.407,4.382-7.789,8.374-15.286,8.374c-11.196,0-17.719-7.399-17.719-19.377
		V29.928h14.798v29.11c0,7.011,3.311,10.612,8.958,10.612s9.249-3.602,9.249-10.612v-29.11h14.799v52.186H162.419z"/>
	<path fill="#222222" d="M211.505,83.281c-16.162,0-28.137-11.974-28.137-26.97v-0.193c0-14.993,12.073-27.164,28.332-27.164
		c16.162,0,28.138,11.976,28.138,26.97v0.194C239.838,71.111,227.764,83.281,211.505,83.281z M225.233,56.118
		c0-7.691-5.55-14.41-13.728-14.41c-8.471,0-13.533,6.523-13.533,14.216v0.194c0,7.691,5.549,14.41,13.728,14.41
		c8.471,0,13.533-6.522,13.533-14.217V56.118z"/>
	<path fill="#222222" d="M273.322,83.281c-15.674,0-27.163-12.071-27.163-26.97v-0.193c0-14.896,11.392-27.164,27.358-27.164
		c9.835,0,15.967,3.31,20.837,8.762l-9.056,9.736c-3.311-3.505-6.621-5.744-11.878-5.744c-7.4,0-12.656,6.523-12.656,14.216v0.194
		c0,7.984,5.16,14.41,13.241,14.41c4.967,0,8.374-2.142,11.976-5.551l8.665,8.764C289.582,79.29,283.74,83.281,273.322,83.281z"/>
	<path fill="#222222" d="M302.721,24.184V11.04h15.577v13.144H302.721z M303.11,82.113V29.928h14.8v52.186H303.11z"/>
	<path fill="#222222" d="M396.882,29.954l-11.39,35.536L373.39,30.506l-26.276,0.007v-2.047c0-3.893,1.948-5.645,5.354-5.645
		c2.533,0,4.577,0.485,6.719,1.265V11.819c-2.726-0.877-5.842-1.46-10.515-1.46c-10.417,0-16.162,5.258-16.162,16.745v3.311h-6.133
		v12.171h6.133v39.528h14.797V42.585h15.223l15.855,39.748c-1.267,2.629-2.63,3.409-5.16,3.409c-1.949,0-4.381-0.877-6.33-2.044
		l-4.965,10.709c3.797,2.238,7.79,3.601,13.144,3.601c8.86,0,13.144-3.991,17.137-14.603l20.055-53.451H396.882z"/>
</g>
<g>
	<path fill="#73EDFF" d="M50.362,101.518C24.545,98.239,6.27,74.63,9.526,48.813C12.804,22.994,36.414,4.719,62.231,7.976
		c25.817,3.277,44.093,26.888,40.837,52.707C99.79,86.498,76.179,104.775,50.362,101.518L50.362,101.518z"/>
	<g>
		<path fill="#000078" d="M62.769,3.724c-2.178-0.273-4.336-0.406-6.477-0.406c-25.508,0-47.72,19.019-51.018,44.961
			c-3.547,28.129,16.436,53.92,44.552,57.489c28.121,3.555,53.923-16.434,57.493-44.548v-0.002
			C110.869,33.086,90.883,7.295,62.769,3.724L62.769,3.724z M98.817,60.146c-2.978,23.429-24.493,40.062-47.913,37.123
			c-23.428-2.975-40.082-24.471-37.125-47.913C16.754,25.924,38.25,9.279,61.694,12.228C85.12,15.201,101.774,36.698,98.817,60.146
			L98.817,60.146z"/>
		<path fill="#000078" d="M77.73,67.029L63.13,67.802c-5.659,0.313-11.28-0.402-16.727-2.122l-13.927-4.392
			c-0.429-0.136-0.862-0.2-1.292-0.2c-1.821,0-3.509,1.17-4.083,2.997c-0.712,2.26,0.54,4.665,2.798,5.376l13.921,4.391
			c6.437,2.035,13.086,2.887,19.773,2.507l14.591-0.772c2.363-0.124,4.177-2.142,4.053-4.504
			C82.11,68.718,80.063,66.89,77.73,67.029L77.73,67.029z"/>
		<path fill="#000078" d="M34.956,54.721l10.879,3.425c6.434,2.037,13.083,2.883,19.75,2.508l11.397-0.6
			c2.363-0.123,4.179-2.141,4.055-4.503c-0.125-2.366-2.19-4.202-4.504-4.055l-11.41,0.6c-5.655,0.313-11.264-0.399-16.709-2.12
			l-10.884-3.428c-0.429-0.135-0.861-0.2-1.291-0.2c-1.82,0-3.509,1.171-4.083,2.997C31.444,51.604,32.697,54.01,34.956,54.721
			L34.956,54.721z"/>
		<path fill="#000078" d="M40.203,39.549l7.67,2.422c6.449,2.033,13.103,2.877,19.77,2.505l8.036-0.429
			c2.363-0.126,4.177-2.143,4.051-4.509c-0.126-2.364-2.19-4.177-4.508-4.051l-8.042,0.429c-5.642,0.317-11.27-0.402-16.729-2.122
			l-7.67-2.42c-0.428-0.135-0.861-0.199-1.292-0.199c-1.819,0-3.508,1.168-4.084,2.995C36.695,36.432,37.946,38.839,40.203,39.549
			L40.203,39.549z"/>
	</g>
</g>
<g>
</g>
<g>
</g>
<g>
</g>
<g>
</g>
<g>
</g>
<g>
</g>
</svg>
