<?xml version="1.0" encoding="utf-8"?>
<!-- Generator: Adobe Illustrator 16.0.0, SVG Export Plug-In . SVG Version: 6.00 Build 0)  -->
<!DOCTYPE svg PUBLIC "-//W3C//DTD SVG 1.1//EN" "http://www.w3.org/Graphics/SVG/1.1/DTD/svg11.dtd">
<svg version="1.1" id="Capa_1" xmlns="http://www.w3.org/2000/svg" xmlns:xlink="http://www.w3.org/1999/xlink" x="0px" y="0px"
	 width="500px" height="500px" viewBox="0 0 500 500" enable-background="new 0 0 500 500" xml:space="preserve">
<g>
	<path fill="#73EDFF" d="M222.367,466.849C102.136,451.581,17.027,341.631,32.191,221.398
		C47.456,101.162,157.412,16.054,277.644,31.222c120.233,15.262,205.342,125.219,190.179,245.456
		C452.55,396.901,342.601,482.02,222.367,466.849L222.367,466.849z"/>
	<g>
		<path fill="#000078" d="M280.149,11.421c-10.147-1.271-20.193-1.893-30.166-1.893C131.19,9.528,27.75,98.101,12.393,218.916
			c-16.521,130.997,76.543,251.106,207.479,267.73c130.961,16.554,251.124-76.533,267.742-207.461v-0.009
			C504.151,148.159,411.074,28.05,280.149,11.421L280.149,11.421z M448.021,274.177c-13.867,109.107-114.063,186.567-223.13,172.884
			C115.786,433.208,38.229,333.1,52,223.927C65.855,114.805,165.962,37.289,275.138,51.023
			C384.236,64.867,461.797,164.982,448.021,274.177L448.021,274.177z"/>
		<path fill="#000078" d="M349.822,306.234l-67.996,3.598c-26.354,1.46-52.531-1.874-77.895-9.883l-64.858-20.451
			c-1.996-0.633-4.013-0.933-6.017-0.933c-8.481,0-16.342,5.449-19.017,13.957c-3.315,10.524,2.516,21.725,13.032,25.036
			l64.833,20.447c29.975,9.479,60.944,13.444,92.083,11.675l67.955-3.598c11.006-0.577,19.452-9.974,18.874-20.975
			C370.217,314.098,360.688,305.584,349.822,306.234L349.822,306.234z"/>
		<path fill="#000078" d="M150.618,248.913l50.667,15.95c29.963,9.486,60.929,13.425,91.976,11.678l53.079-2.792
			c11.007-0.573,19.461-9.969,18.884-20.971c-0.584-11.019-10.202-19.569-20.976-18.883l-53.139,2.792
			c-26.341,1.456-52.458-1.859-77.818-9.874l-50.688-15.962c-1.999-0.628-4.011-0.933-6.01-0.933
			c-8.477,0-16.341,5.453-19.015,13.958C134.264,234.396,140.1,245.602,150.618,248.913L150.618,248.913z"/>
		<path fill="#000078" d="M175.055,178.257l35.721,11.279c30.033,9.469,61.024,13.398,92.068,11.665l37.424-1.997
			c11.002-0.585,19.451-9.978,18.864-20.997c-0.586-11.011-10.201-19.451-20.993-18.864l-37.451,1.997
			c-26.277,1.478-52.487-1.874-77.911-9.883l-35.721-11.27c-1.994-0.628-4.009-0.928-6.015-0.928
			c-8.472,0-16.338,5.439-19.019,13.949C158.72,163.74,164.546,174.951,175.055,178.257L175.055,178.257z"/>
	</g>
</g>
<g>
</g>
<g>
</g>
<g>
</g>
<g>
</g>
<g>
</g>
<g>
</g>
</svg>
